<mxfile host="Electron" modified="2023-08-17T15:18:26.203Z" agent="Mozilla/5.0 (X11; Linux x86_64) AppleWebKit/537.36 (KHTML, like Gecko) draw.io/21.6.8 Chrome/114.0.5735.289 Electron/25.5.0 Safari/537.36" etag="a6bZCTz5znp08zT73B56" version="21.6.8" type="device">
  <diagram name="Page-1" id="CguihVkthUNdF74gGqqd">
    <mxGraphModel dx="1366" dy="829" grid="1" gridSize="10" guides="1" tooltips="1" connect="1" arrows="1" fold="1" page="1" pageScale="1" pageWidth="850" pageHeight="1100" math="0" shadow="0">
      <root>
        <mxCell id="0" />
        <mxCell id="1" parent="0" />
        <mxCell id="zKcuPosbzkQgPbfbNeX0-1" value="1" style="rounded=0;whiteSpace=wrap;html=1;" vertex="1" parent="1">
          <mxGeometry x="80" y="80" width="40" height="40" as="geometry" />
        </mxCell>
        <mxCell id="zKcuPosbzkQgPbfbNeX0-2" value="1" style="rounded=0;whiteSpace=wrap;html=1;" vertex="1" parent="1">
          <mxGeometry x="80" y="200" width="40" height="40" as="geometry" />
        </mxCell>
        <mxCell id="zKcuPosbzkQgPbfbNeX0-3" value="0" style="rounded=0;whiteSpace=wrap;html=1;" vertex="1" parent="1">
          <mxGeometry x="360" y="80" width="40" height="40" as="geometry" />
        </mxCell>
        <mxCell id="zKcuPosbzkQgPbfbNeX0-4" value="1" style="rounded=0;whiteSpace=wrap;html=1;" vertex="1" parent="1">
          <mxGeometry x="120" y="80" width="40" height="40" as="geometry" />
        </mxCell>
        <mxCell id="zKcuPosbzkQgPbfbNeX0-5" value="0" style="rounded=0;whiteSpace=wrap;html=1;" vertex="1" parent="1">
          <mxGeometry x="160" y="80" width="40" height="40" as="geometry" />
        </mxCell>
        <mxCell id="zKcuPosbzkQgPbfbNeX0-6" value="1" style="rounded=0;whiteSpace=wrap;html=1;" vertex="1" parent="1">
          <mxGeometry x="200" y="80" width="40" height="40" as="geometry" />
        </mxCell>
        <mxCell id="zKcuPosbzkQgPbfbNeX0-7" value="0" style="rounded=0;whiteSpace=wrap;html=1;" vertex="1" parent="1">
          <mxGeometry x="120" y="200" width="40" height="40" as="geometry" />
        </mxCell>
        <mxCell id="zKcuPosbzkQgPbfbNeX0-8" value="1" style="rounded=0;whiteSpace=wrap;html=1;" vertex="1" parent="1">
          <mxGeometry x="200" y="200" width="40" height="40" as="geometry" />
        </mxCell>
        <mxCell id="zKcuPosbzkQgPbfbNeX0-9" value="1" style="rounded=0;whiteSpace=wrap;html=1;" vertex="1" parent="1">
          <mxGeometry x="160" y="200" width="40" height="40" as="geometry" />
        </mxCell>
        <mxCell id="zKcuPosbzkQgPbfbNeX0-10" value="seq a" style="text;html=1;strokeColor=none;fillColor=none;align=center;verticalAlign=middle;whiteSpace=wrap;rounded=0;" vertex="1" parent="1">
          <mxGeometry x="50" y="50" width="60" height="30" as="geometry" />
        </mxCell>
        <mxCell id="zKcuPosbzkQgPbfbNeX0-11" value="1" style="rounded=0;whiteSpace=wrap;html=1;" vertex="1" parent="1">
          <mxGeometry x="240" y="80" width="40" height="40" as="geometry" />
        </mxCell>
        <mxCell id="zKcuPosbzkQgPbfbNeX0-12" value="seq b" style="text;html=1;strokeColor=none;fillColor=none;align=center;verticalAlign=middle;whiteSpace=wrap;rounded=0;" vertex="1" parent="1">
          <mxGeometry x="50" y="170" width="60" height="30" as="geometry" />
        </mxCell>
        <mxCell id="zKcuPosbzkQgPbfbNeX0-13" value="carry" style="text;html=1;strokeColor=none;fillColor=none;align=center;verticalAlign=middle;whiteSpace=wrap;rounded=0;" vertex="1" parent="1">
          <mxGeometry x="330" y="50" width="60" height="30" as="geometry" />
        </mxCell>
        <mxCell id="zKcuPosbzkQgPbfbNeX0-14" value="Initial Phase" style="text;html=1;strokeColor=none;fillColor=none;align=center;verticalAlign=middle;whiteSpace=wrap;rounded=0;fontSize=18;" vertex="1" parent="1">
          <mxGeometry x="40" y="10" width="130" height="30" as="geometry" />
        </mxCell>
        <mxCell id="zKcuPosbzkQgPbfbNeX0-16" value="1" style="rounded=0;whiteSpace=wrap;html=1;" vertex="1" parent="1">
          <mxGeometry x="80" y="360" width="40" height="40" as="geometry" />
        </mxCell>
        <mxCell id="zKcuPosbzkQgPbfbNeX0-17" value="1" style="rounded=0;whiteSpace=wrap;html=1;" vertex="1" parent="1">
          <mxGeometry x="120" y="480" width="40" height="40" as="geometry" />
        </mxCell>
        <mxCell id="zKcuPosbzkQgPbfbNeX0-18" value="0" style="rounded=0;whiteSpace=wrap;html=1;fillColor=#60a917;fontColor=#ffffff;strokeColor=#2D7600;" vertex="1" parent="1">
          <mxGeometry x="360" y="360" width="40" height="40" as="geometry" />
        </mxCell>
        <mxCell id="zKcuPosbzkQgPbfbNeX0-19" value="1" style="rounded=0;whiteSpace=wrap;html=1;" vertex="1" parent="1">
          <mxGeometry x="120" y="360" width="40" height="40" as="geometry" />
        </mxCell>
        <mxCell id="zKcuPosbzkQgPbfbNeX0-20" value="0" style="rounded=0;whiteSpace=wrap;html=1;" vertex="1" parent="1">
          <mxGeometry x="160" y="360" width="40" height="40" as="geometry" />
        </mxCell>
        <mxCell id="zKcuPosbzkQgPbfbNeX0-21" value="1" style="rounded=0;whiteSpace=wrap;html=1;" vertex="1" parent="1">
          <mxGeometry x="200" y="360" width="40" height="40" as="geometry" />
        </mxCell>
        <mxCell id="zKcuPosbzkQgPbfbNeX0-22" value="0" style="rounded=0;whiteSpace=wrap;html=1;" vertex="1" parent="1">
          <mxGeometry x="160" y="480" width="40" height="40" as="geometry" />
        </mxCell>
        <mxCell id="zKcuPosbzkQgPbfbNeX0-23" value="1" style="rounded=0;whiteSpace=wrap;html=1;" vertex="1" parent="1">
          <mxGeometry x="240" y="480" width="40" height="40" as="geometry" />
        </mxCell>
        <mxCell id="zKcuPosbzkQgPbfbNeX0-24" value="1" style="rounded=0;whiteSpace=wrap;html=1;" vertex="1" parent="1">
          <mxGeometry x="200" y="480" width="40" height="40" as="geometry" />
        </mxCell>
        <mxCell id="zKcuPosbzkQgPbfbNeX0-25" value="seq a" style="text;html=1;strokeColor=none;fillColor=none;align=center;verticalAlign=middle;whiteSpace=wrap;rounded=0;" vertex="1" parent="1">
          <mxGeometry x="50" y="330" width="60" height="30" as="geometry" />
        </mxCell>
        <mxCell id="zKcuPosbzkQgPbfbNeX0-26" value="1" style="rounded=0;whiteSpace=wrap;html=1;" vertex="1" parent="1">
          <mxGeometry x="240" y="360" width="40" height="40" as="geometry" />
        </mxCell>
        <mxCell id="zKcuPosbzkQgPbfbNeX0-27" value="seq b" style="text;html=1;strokeColor=none;fillColor=none;align=center;verticalAlign=middle;whiteSpace=wrap;rounded=0;" vertex="1" parent="1">
          <mxGeometry x="50" y="450" width="60" height="30" as="geometry" />
        </mxCell>
        <mxCell id="zKcuPosbzkQgPbfbNeX0-28" value="carry" style="text;html=1;strokeColor=none;fillColor=none;align=center;verticalAlign=middle;whiteSpace=wrap;rounded=0;" vertex="1" parent="1">
          <mxGeometry x="330" y="330" width="60" height="30" as="geometry" />
        </mxCell>
        <mxCell id="zKcuPosbzkQgPbfbNeX0-29" value="Before Iterations" style="text;html=1;strokeColor=none;fillColor=none;align=center;verticalAlign=middle;whiteSpace=wrap;rounded=0;fontSize=18;" vertex="1" parent="1">
          <mxGeometry x="50" y="290" width="140" height="30" as="geometry" />
        </mxCell>
        <mxCell id="zKcuPosbzkQgPbfbNeX0-30" value="0" style="rounded=0;whiteSpace=wrap;html=1;dashed=1;fillColor=#647687;fontColor=#ffffff;strokeColor=#314354;" vertex="1" parent="1">
          <mxGeometry x="80" y="480" width="40" height="40" as="geometry" />
        </mxCell>
        <mxCell id="zKcuPosbzkQgPbfbNeX0-46" value="0" style="rounded=0;whiteSpace=wrap;html=1;" vertex="1" parent="1">
          <mxGeometry x="120" y="600" width="40" height="40" as="geometry" />
        </mxCell>
        <mxCell id="zKcuPosbzkQgPbfbNeX0-47" value="0" style="rounded=0;whiteSpace=wrap;html=1;" vertex="1" parent="1">
          <mxGeometry x="160" y="600" width="40" height="40" as="geometry" />
        </mxCell>
        <mxCell id="zKcuPosbzkQgPbfbNeX0-48" value="0" style="rounded=0;whiteSpace=wrap;html=1;" vertex="1" parent="1">
          <mxGeometry x="240" y="600" width="40" height="40" as="geometry" />
        </mxCell>
        <mxCell id="zKcuPosbzkQgPbfbNeX0-49" value="0" style="rounded=0;whiteSpace=wrap;html=1;" vertex="1" parent="1">
          <mxGeometry x="200" y="600" width="40" height="40" as="geometry" />
        </mxCell>
        <mxCell id="zKcuPosbzkQgPbfbNeX0-50" value="result" style="text;html=1;strokeColor=none;fillColor=none;align=center;verticalAlign=middle;whiteSpace=wrap;rounded=0;" vertex="1" parent="1">
          <mxGeometry x="50" y="570" width="60" height="30" as="geometry" />
        </mxCell>
        <mxCell id="zKcuPosbzkQgPbfbNeX0-51" value="0" style="rounded=0;whiteSpace=wrap;html=1;" vertex="1" parent="1">
          <mxGeometry x="80" y="600" width="40" height="40" as="geometry" />
        </mxCell>
        <mxCell id="zKcuPosbzkQgPbfbNeX0-52" value="Iterations" style="text;html=1;strokeColor=none;fillColor=none;align=center;verticalAlign=middle;whiteSpace=wrap;rounded=0;fontSize=18;" vertex="1" parent="1">
          <mxGeometry x="40" y="660" width="140" height="30" as="geometry" />
        </mxCell>
        <mxCell id="zKcuPosbzkQgPbfbNeX0-53" value="1" style="rounded=0;whiteSpace=wrap;html=1;" vertex="1" parent="1">
          <mxGeometry x="80" y="760" width="40" height="40" as="geometry" />
        </mxCell>
        <mxCell id="zKcuPosbzkQgPbfbNeX0-54" value="1" style="rounded=0;whiteSpace=wrap;html=1;" vertex="1" parent="1">
          <mxGeometry x="120" y="880" width="40" height="40" as="geometry" />
        </mxCell>
        <mxCell id="zKcuPosbzkQgPbfbNeX0-55" value="1" style="rounded=0;whiteSpace=wrap;html=1;fillColor=#60a917;fontColor=#ffffff;strokeColor=#2D7600;" vertex="1" parent="1">
          <mxGeometry x="440" y="760" width="40" height="40" as="geometry" />
        </mxCell>
        <mxCell id="zKcuPosbzkQgPbfbNeX0-56" value="1" style="rounded=0;whiteSpace=wrap;html=1;" vertex="1" parent="1">
          <mxGeometry x="120" y="760" width="40" height="40" as="geometry" />
        </mxCell>
        <mxCell id="zKcuPosbzkQgPbfbNeX0-57" value="0" style="rounded=0;whiteSpace=wrap;html=1;" vertex="1" parent="1">
          <mxGeometry x="160" y="760" width="40" height="40" as="geometry" />
        </mxCell>
        <mxCell id="zKcuPosbzkQgPbfbNeX0-58" value="1" style="rounded=0;whiteSpace=wrap;html=1;" vertex="1" parent="1">
          <mxGeometry x="200" y="760" width="40" height="40" as="geometry" />
        </mxCell>
        <mxCell id="zKcuPosbzkQgPbfbNeX0-59" value="0" style="rounded=0;whiteSpace=wrap;html=1;" vertex="1" parent="1">
          <mxGeometry x="160" y="880" width="40" height="40" as="geometry" />
        </mxCell>
        <mxCell id="zKcuPosbzkQgPbfbNeX0-60" value="1" style="rounded=0;whiteSpace=wrap;html=1;fillColor=#6a00ff;fontColor=#ffffff;strokeColor=#3700CC;" vertex="1" parent="1">
          <mxGeometry x="240" y="880" width="40" height="40" as="geometry" />
        </mxCell>
        <mxCell id="zKcuPosbzkQgPbfbNeX0-61" value="1" style="rounded=0;whiteSpace=wrap;html=1;" vertex="1" parent="1">
          <mxGeometry x="200" y="880" width="40" height="40" as="geometry" />
        </mxCell>
        <mxCell id="zKcuPosbzkQgPbfbNeX0-62" value="seq a" style="text;html=1;strokeColor=none;fillColor=none;align=center;verticalAlign=middle;whiteSpace=wrap;rounded=0;" vertex="1" parent="1">
          <mxGeometry x="50" y="730" width="60" height="30" as="geometry" />
        </mxCell>
        <mxCell id="zKcuPosbzkQgPbfbNeX0-63" value="1" style="rounded=0;whiteSpace=wrap;html=1;fillColor=#6a00ff;fontColor=#ffffff;strokeColor=#3700CC;" vertex="1" parent="1">
          <mxGeometry x="240" y="760" width="40" height="40" as="geometry" />
        </mxCell>
        <mxCell id="zKcuPosbzkQgPbfbNeX0-64" value="seq b" style="text;html=1;strokeColor=none;fillColor=none;align=center;verticalAlign=middle;whiteSpace=wrap;rounded=0;" vertex="1" parent="1">
          <mxGeometry x="50" y="850" width="60" height="30" as="geometry" />
        </mxCell>
        <mxCell id="zKcuPosbzkQgPbfbNeX0-65" value="carry" style="text;html=1;strokeColor=none;fillColor=none;align=center;verticalAlign=middle;whiteSpace=wrap;rounded=0;" vertex="1" parent="1">
          <mxGeometry x="330" y="730" width="60" height="30" as="geometry" />
        </mxCell>
        <mxCell id="zKcuPosbzkQgPbfbNeX0-66" value="0" style="rounded=0;whiteSpace=wrap;html=1;" vertex="1" parent="1">
          <mxGeometry x="80" y="880" width="40" height="40" as="geometry" />
        </mxCell>
        <mxCell id="zKcuPosbzkQgPbfbNeX0-67" value="0" style="rounded=0;whiteSpace=wrap;html=1;" vertex="1" parent="1">
          <mxGeometry x="120" y="1000" width="40" height="40" as="geometry" />
        </mxCell>
        <mxCell id="zKcuPosbzkQgPbfbNeX0-68" value="0" style="rounded=0;whiteSpace=wrap;html=1;" vertex="1" parent="1">
          <mxGeometry x="160" y="1000" width="40" height="40" as="geometry" />
        </mxCell>
        <mxCell id="zKcuPosbzkQgPbfbNeX0-69" value="0" style="rounded=0;whiteSpace=wrap;html=1;fillColor=#6a00ff;fontColor=#ffffff;strokeColor=#3700CC;" vertex="1" parent="1">
          <mxGeometry x="240" y="1000" width="40" height="40" as="geometry" />
        </mxCell>
        <mxCell id="zKcuPosbzkQgPbfbNeX0-70" value="0" style="rounded=0;whiteSpace=wrap;html=1;" vertex="1" parent="1">
          <mxGeometry x="200" y="1000" width="40" height="40" as="geometry" />
        </mxCell>
        <mxCell id="zKcuPosbzkQgPbfbNeX0-71" value="result" style="text;html=1;strokeColor=none;fillColor=none;align=center;verticalAlign=middle;whiteSpace=wrap;rounded=0;" vertex="1" parent="1">
          <mxGeometry x="50" y="970" width="60" height="30" as="geometry" />
        </mxCell>
        <mxCell id="zKcuPosbzkQgPbfbNeX0-72" value="0" style="rounded=0;whiteSpace=wrap;html=1;" vertex="1" parent="1">
          <mxGeometry x="80" y="1000" width="40" height="40" as="geometry" />
        </mxCell>
        <mxCell id="zKcuPosbzkQgPbfbNeX0-73" value="1" style="rounded=0;whiteSpace=wrap;html=1;" vertex="1" parent="1">
          <mxGeometry x="80" y="1160" width="40" height="40" as="geometry" />
        </mxCell>
        <mxCell id="zKcuPosbzkQgPbfbNeX0-74" value="1" style="rounded=0;whiteSpace=wrap;html=1;" vertex="1" parent="1">
          <mxGeometry x="120" y="1280" width="40" height="40" as="geometry" />
        </mxCell>
        <mxCell id="zKcuPosbzkQgPbfbNeX0-116" value="" style="edgeStyle=orthogonalEdgeStyle;rounded=0;orthogonalLoop=1;jettySize=auto;html=1;" edge="1" parent="1" source="zKcuPosbzkQgPbfbNeX0-75" target="zKcuPosbzkQgPbfbNeX0-115">
          <mxGeometry relative="1" as="geometry" />
        </mxCell>
        <mxCell id="zKcuPosbzkQgPbfbNeX0-75" value="1" style="rounded=0;whiteSpace=wrap;html=1;fillColor=#6a00ff;fontColor=#ffffff;strokeColor=#3700CC;" vertex="1" parent="1">
          <mxGeometry x="360" y="1160" width="40" height="40" as="geometry" />
        </mxCell>
        <mxCell id="zKcuPosbzkQgPbfbNeX0-76" value="1" style="rounded=0;whiteSpace=wrap;html=1;" vertex="1" parent="1">
          <mxGeometry x="120" y="1160" width="40" height="40" as="geometry" />
        </mxCell>
        <mxCell id="zKcuPosbzkQgPbfbNeX0-77" value="0" style="rounded=0;whiteSpace=wrap;html=1;" vertex="1" parent="1">
          <mxGeometry x="160" y="1160" width="40" height="40" as="geometry" />
        </mxCell>
        <mxCell id="zKcuPosbzkQgPbfbNeX0-78" value="1" style="rounded=0;whiteSpace=wrap;html=1;fillColor=#6a00ff;fontColor=#ffffff;strokeColor=#3700CC;" vertex="1" parent="1">
          <mxGeometry x="200" y="1160" width="40" height="40" as="geometry" />
        </mxCell>
        <mxCell id="zKcuPosbzkQgPbfbNeX0-79" value="0" style="rounded=0;whiteSpace=wrap;html=1;" vertex="1" parent="1">
          <mxGeometry x="160" y="1280" width="40" height="40" as="geometry" />
        </mxCell>
        <mxCell id="zKcuPosbzkQgPbfbNeX0-80" value="1" style="rounded=0;whiteSpace=wrap;html=1;" vertex="1" parent="1">
          <mxGeometry x="240" y="1280" width="40" height="40" as="geometry" />
        </mxCell>
        <mxCell id="zKcuPosbzkQgPbfbNeX0-81" value="1" style="rounded=0;whiteSpace=wrap;html=1;fillColor=#6a00ff;fontColor=#ffffff;strokeColor=#3700CC;" vertex="1" parent="1">
          <mxGeometry x="200" y="1280" width="40" height="40" as="geometry" />
        </mxCell>
        <mxCell id="zKcuPosbzkQgPbfbNeX0-82" value="seq a" style="text;html=1;strokeColor=none;fillColor=none;align=center;verticalAlign=middle;whiteSpace=wrap;rounded=0;" vertex="1" parent="1">
          <mxGeometry x="50" y="1130" width="60" height="30" as="geometry" />
        </mxCell>
        <mxCell id="zKcuPosbzkQgPbfbNeX0-83" value="1" style="rounded=0;whiteSpace=wrap;html=1;" vertex="1" parent="1">
          <mxGeometry x="240" y="1160" width="40" height="40" as="geometry" />
        </mxCell>
        <mxCell id="zKcuPosbzkQgPbfbNeX0-84" value="seq b" style="text;html=1;strokeColor=none;fillColor=none;align=center;verticalAlign=middle;whiteSpace=wrap;rounded=0;" vertex="1" parent="1">
          <mxGeometry x="50" y="1250" width="60" height="30" as="geometry" />
        </mxCell>
        <mxCell id="zKcuPosbzkQgPbfbNeX0-85" value="carry" style="text;html=1;strokeColor=none;fillColor=none;align=center;verticalAlign=middle;whiteSpace=wrap;rounded=0;" vertex="1" parent="1">
          <mxGeometry x="330" y="1130" width="60" height="30" as="geometry" />
        </mxCell>
        <mxCell id="zKcuPosbzkQgPbfbNeX0-86" value="0" style="rounded=0;whiteSpace=wrap;html=1;" vertex="1" parent="1">
          <mxGeometry x="80" y="1280" width="40" height="40" as="geometry" />
        </mxCell>
        <mxCell id="zKcuPosbzkQgPbfbNeX0-87" value="0" style="rounded=0;whiteSpace=wrap;html=1;" vertex="1" parent="1">
          <mxGeometry x="120" y="1400" width="40" height="40" as="geometry" />
        </mxCell>
        <mxCell id="zKcuPosbzkQgPbfbNeX0-88" value="0" style="rounded=0;whiteSpace=wrap;html=1;" vertex="1" parent="1">
          <mxGeometry x="160" y="1400" width="40" height="40" as="geometry" />
        </mxCell>
        <mxCell id="zKcuPosbzkQgPbfbNeX0-89" value="0" style="rounded=0;whiteSpace=wrap;html=1;" vertex="1" parent="1">
          <mxGeometry x="240" y="1400" width="40" height="40" as="geometry" />
        </mxCell>
        <mxCell id="zKcuPosbzkQgPbfbNeX0-90" value="1" style="rounded=0;whiteSpace=wrap;html=1;fillColor=#6a00ff;fontColor=#ffffff;strokeColor=#3700CC;" vertex="1" parent="1">
          <mxGeometry x="200" y="1400" width="40" height="40" as="geometry" />
        </mxCell>
        <mxCell id="zKcuPosbzkQgPbfbNeX0-91" value="result" style="text;html=1;strokeColor=none;fillColor=none;align=center;verticalAlign=middle;whiteSpace=wrap;rounded=0;" vertex="1" parent="1">
          <mxGeometry x="50" y="1370" width="60" height="30" as="geometry" />
        </mxCell>
        <mxCell id="zKcuPosbzkQgPbfbNeX0-92" value="0" style="rounded=0;whiteSpace=wrap;html=1;" vertex="1" parent="1">
          <mxGeometry x="80" y="1400" width="40" height="40" as="geometry" />
        </mxCell>
        <mxCell id="zKcuPosbzkQgPbfbNeX0-93" value="1" style="rounded=0;whiteSpace=wrap;html=1;" vertex="1" parent="1">
          <mxGeometry x="80" y="1520" width="40" height="40" as="geometry" />
        </mxCell>
        <mxCell id="zKcuPosbzkQgPbfbNeX0-94" value="1" style="rounded=0;whiteSpace=wrap;html=1;" vertex="1" parent="1">
          <mxGeometry x="120" y="1640" width="40" height="40" as="geometry" />
        </mxCell>
        <mxCell id="zKcuPosbzkQgPbfbNeX0-95" value="0" style="rounded=0;whiteSpace=wrap;html=1;fillColor=#60a917;fontColor=#ffffff;strokeColor=#2D7600;" vertex="1" parent="1">
          <mxGeometry x="440" y="1520" width="40" height="40" as="geometry" />
        </mxCell>
        <mxCell id="zKcuPosbzkQgPbfbNeX0-96" value="1" style="rounded=0;whiteSpace=wrap;html=1;" vertex="1" parent="1">
          <mxGeometry x="120" y="1520" width="40" height="40" as="geometry" />
        </mxCell>
        <mxCell id="zKcuPosbzkQgPbfbNeX0-97" value="0" style="rounded=0;whiteSpace=wrap;html=1;fillColor=#6a00ff;fontColor=#ffffff;strokeColor=#3700CC;" vertex="1" parent="1">
          <mxGeometry x="160" y="1520" width="40" height="40" as="geometry" />
        </mxCell>
        <mxCell id="zKcuPosbzkQgPbfbNeX0-98" value="1" style="rounded=0;whiteSpace=wrap;html=1;" vertex="1" parent="1">
          <mxGeometry x="200" y="1520" width="40" height="40" as="geometry" />
        </mxCell>
        <mxCell id="zKcuPosbzkQgPbfbNeX0-99" value="0" style="rounded=0;whiteSpace=wrap;html=1;fillColor=#6a00ff;fontColor=#ffffff;strokeColor=#3700CC;" vertex="1" parent="1">
          <mxGeometry x="160" y="1640" width="40" height="40" as="geometry" />
        </mxCell>
        <mxCell id="zKcuPosbzkQgPbfbNeX0-100" value="1" style="rounded=0;whiteSpace=wrap;html=1;" vertex="1" parent="1">
          <mxGeometry x="240" y="1640" width="40" height="40" as="geometry" />
        </mxCell>
        <mxCell id="zKcuPosbzkQgPbfbNeX0-101" value="1" style="rounded=0;whiteSpace=wrap;html=1;" vertex="1" parent="1">
          <mxGeometry x="200" y="1640" width="40" height="40" as="geometry" />
        </mxCell>
        <mxCell id="zKcuPosbzkQgPbfbNeX0-102" value="seq a" style="text;html=1;strokeColor=none;fillColor=none;align=center;verticalAlign=middle;whiteSpace=wrap;rounded=0;" vertex="1" parent="1">
          <mxGeometry x="50" y="1490" width="60" height="30" as="geometry" />
        </mxCell>
        <mxCell id="zKcuPosbzkQgPbfbNeX0-103" value="1" style="rounded=0;whiteSpace=wrap;html=1;" vertex="1" parent="1">
          <mxGeometry x="240" y="1520" width="40" height="40" as="geometry" />
        </mxCell>
        <mxCell id="zKcuPosbzkQgPbfbNeX0-104" value="seq b" style="text;html=1;strokeColor=none;fillColor=none;align=center;verticalAlign=middle;whiteSpace=wrap;rounded=0;" vertex="1" parent="1">
          <mxGeometry x="50" y="1610" width="60" height="30" as="geometry" />
        </mxCell>
        <mxCell id="zKcuPosbzkQgPbfbNeX0-105" value="carry" style="text;html=1;strokeColor=none;fillColor=none;align=center;verticalAlign=middle;whiteSpace=wrap;rounded=0;" vertex="1" parent="1">
          <mxGeometry x="330" y="1490" width="60" height="30" as="geometry" />
        </mxCell>
        <mxCell id="zKcuPosbzkQgPbfbNeX0-106" value="0" style="rounded=0;whiteSpace=wrap;html=1;" vertex="1" parent="1">
          <mxGeometry x="80" y="1640" width="40" height="40" as="geometry" />
        </mxCell>
        <mxCell id="zKcuPosbzkQgPbfbNeX0-107" value="0" style="rounded=0;whiteSpace=wrap;html=1;" vertex="1" parent="1">
          <mxGeometry x="120" y="1760" width="40" height="40" as="geometry" />
        </mxCell>
        <mxCell id="zKcuPosbzkQgPbfbNeX0-108" value="1" style="rounded=0;whiteSpace=wrap;html=1;fillColor=#6a00ff;fontColor=#ffffff;strokeColor=#3700CC;" vertex="1" parent="1">
          <mxGeometry x="160" y="1760" width="40" height="40" as="geometry" />
        </mxCell>
        <mxCell id="zKcuPosbzkQgPbfbNeX0-109" value="0" style="rounded=0;whiteSpace=wrap;html=1;" vertex="1" parent="1">
          <mxGeometry x="240" y="1760" width="40" height="40" as="geometry" />
        </mxCell>
        <mxCell id="zKcuPosbzkQgPbfbNeX0-110" value="1" style="rounded=0;whiteSpace=wrap;html=1;" vertex="1" parent="1">
          <mxGeometry x="200" y="1760" width="40" height="40" as="geometry" />
        </mxCell>
        <mxCell id="zKcuPosbzkQgPbfbNeX0-111" value="result" style="text;html=1;strokeColor=none;fillColor=none;align=center;verticalAlign=middle;whiteSpace=wrap;rounded=0;" vertex="1" parent="1">
          <mxGeometry x="50" y="1730" width="60" height="30" as="geometry" />
        </mxCell>
        <mxCell id="zKcuPosbzkQgPbfbNeX0-112" value="0" style="rounded=0;whiteSpace=wrap;html=1;" vertex="1" parent="1">
          <mxGeometry x="80" y="1760" width="40" height="40" as="geometry" />
        </mxCell>
        <mxCell id="zKcuPosbzkQgPbfbNeX0-114" value="" style="edgeStyle=orthogonalEdgeStyle;rounded=0;orthogonalLoop=1;jettySize=auto;html=1;" edge="1" parent="1" source="zKcuPosbzkQgPbfbNeX0-113" target="zKcuPosbzkQgPbfbNeX0-55">
          <mxGeometry relative="1" as="geometry" />
        </mxCell>
        <mxCell id="zKcuPosbzkQgPbfbNeX0-113" value="0" style="rounded=0;whiteSpace=wrap;html=1;fillColor=#6a00ff;fontColor=#ffffff;strokeColor=#3700CC;" vertex="1" parent="1">
          <mxGeometry x="360" y="760" width="40" height="40" as="geometry" />
        </mxCell>
        <mxCell id="zKcuPosbzkQgPbfbNeX0-115" value="1" style="rounded=0;whiteSpace=wrap;html=1;fillColor=#60a917;fontColor=#ffffff;strokeColor=#2D7600;" vertex="1" parent="1">
          <mxGeometry x="440" y="1160" width="40" height="40" as="geometry" />
        </mxCell>
        <mxCell id="zKcuPosbzkQgPbfbNeX0-118" value="" style="edgeStyle=orthogonalEdgeStyle;rounded=0;orthogonalLoop=1;jettySize=auto;html=1;" edge="1" parent="1" source="zKcuPosbzkQgPbfbNeX0-117" target="zKcuPosbzkQgPbfbNeX0-95">
          <mxGeometry relative="1" as="geometry" />
        </mxCell>
        <mxCell id="zKcuPosbzkQgPbfbNeX0-117" value="1" style="rounded=0;whiteSpace=wrap;html=1;fillColor=#6a00ff;fontColor=#ffffff;strokeColor=#3700CC;" vertex="1" parent="1">
          <mxGeometry x="360" y="1520" width="40" height="40" as="geometry" />
        </mxCell>
        <mxCell id="zKcuPosbzkQgPbfbNeX0-119" value="1" style="rounded=0;whiteSpace=wrap;html=1;" vertex="1" parent="1">
          <mxGeometry x="80" y="1880" width="40" height="40" as="geometry" />
        </mxCell>
        <mxCell id="zKcuPosbzkQgPbfbNeX0-120" value="1" style="rounded=0;whiteSpace=wrap;html=1;fillColor=#6a00ff;fontColor=#ffffff;strokeColor=#3700CC;" vertex="1" parent="1">
          <mxGeometry x="120" y="2000" width="40" height="40" as="geometry" />
        </mxCell>
        <mxCell id="zKcuPosbzkQgPbfbNeX0-121" value="1" style="rounded=0;whiteSpace=wrap;html=1;fillColor=#60a917;fontColor=#ffffff;strokeColor=#2D7600;" vertex="1" parent="1">
          <mxGeometry x="440" y="1880" width="40" height="40" as="geometry" />
        </mxCell>
        <mxCell id="zKcuPosbzkQgPbfbNeX0-122" value="1" style="rounded=0;whiteSpace=wrap;html=1;fillColor=#6a00ff;fontColor=#ffffff;strokeColor=#3700CC;" vertex="1" parent="1">
          <mxGeometry x="120" y="1880" width="40" height="40" as="geometry" />
        </mxCell>
        <mxCell id="zKcuPosbzkQgPbfbNeX0-123" value="0" style="rounded=0;whiteSpace=wrap;html=1;" vertex="1" parent="1">
          <mxGeometry x="160" y="1880" width="40" height="40" as="geometry" />
        </mxCell>
        <mxCell id="zKcuPosbzkQgPbfbNeX0-124" value="1" style="rounded=0;whiteSpace=wrap;html=1;" vertex="1" parent="1">
          <mxGeometry x="200" y="1880" width="40" height="40" as="geometry" />
        </mxCell>
        <mxCell id="zKcuPosbzkQgPbfbNeX0-125" value="0" style="rounded=0;whiteSpace=wrap;html=1;" vertex="1" parent="1">
          <mxGeometry x="160" y="2000" width="40" height="40" as="geometry" />
        </mxCell>
        <mxCell id="zKcuPosbzkQgPbfbNeX0-126" value="1" style="rounded=0;whiteSpace=wrap;html=1;" vertex="1" parent="1">
          <mxGeometry x="240" y="2000" width="40" height="40" as="geometry" />
        </mxCell>
        <mxCell id="zKcuPosbzkQgPbfbNeX0-127" value="1" style="rounded=0;whiteSpace=wrap;html=1;" vertex="1" parent="1">
          <mxGeometry x="200" y="2000" width="40" height="40" as="geometry" />
        </mxCell>
        <mxCell id="zKcuPosbzkQgPbfbNeX0-128" value="seq a" style="text;html=1;strokeColor=none;fillColor=none;align=center;verticalAlign=middle;whiteSpace=wrap;rounded=0;" vertex="1" parent="1">
          <mxGeometry x="50" y="1850" width="60" height="30" as="geometry" />
        </mxCell>
        <mxCell id="zKcuPosbzkQgPbfbNeX0-129" value="1" style="rounded=0;whiteSpace=wrap;html=1;" vertex="1" parent="1">
          <mxGeometry x="240" y="1880" width="40" height="40" as="geometry" />
        </mxCell>
        <mxCell id="zKcuPosbzkQgPbfbNeX0-130" value="seq b" style="text;html=1;strokeColor=none;fillColor=none;align=center;verticalAlign=middle;whiteSpace=wrap;rounded=0;" vertex="1" parent="1">
          <mxGeometry x="50" y="1970" width="60" height="30" as="geometry" />
        </mxCell>
        <mxCell id="zKcuPosbzkQgPbfbNeX0-131" value="carry" style="text;html=1;strokeColor=none;fillColor=none;align=center;verticalAlign=middle;whiteSpace=wrap;rounded=0;" vertex="1" parent="1">
          <mxGeometry x="330" y="1850" width="60" height="30" as="geometry" />
        </mxCell>
        <mxCell id="zKcuPosbzkQgPbfbNeX0-132" value="0" style="rounded=0;whiteSpace=wrap;html=1;" vertex="1" parent="1">
          <mxGeometry x="80" y="2000" width="40" height="40" as="geometry" />
        </mxCell>
        <mxCell id="zKcuPosbzkQgPbfbNeX0-133" value="0" style="rounded=0;whiteSpace=wrap;html=1;fillColor=#6a00ff;fontColor=#ffffff;strokeColor=#3700CC;" vertex="1" parent="1">
          <mxGeometry x="120" y="2120" width="40" height="40" as="geometry" />
        </mxCell>
        <mxCell id="zKcuPosbzkQgPbfbNeX0-134" value="1" style="rounded=0;whiteSpace=wrap;html=1;" vertex="1" parent="1">
          <mxGeometry x="160" y="2120" width="40" height="40" as="geometry" />
        </mxCell>
        <mxCell id="zKcuPosbzkQgPbfbNeX0-135" value="0" style="rounded=0;whiteSpace=wrap;html=1;" vertex="1" parent="1">
          <mxGeometry x="240" y="2120" width="40" height="40" as="geometry" />
        </mxCell>
        <mxCell id="zKcuPosbzkQgPbfbNeX0-136" value="1" style="rounded=0;whiteSpace=wrap;html=1;" vertex="1" parent="1">
          <mxGeometry x="200" y="2120" width="40" height="40" as="geometry" />
        </mxCell>
        <mxCell id="zKcuPosbzkQgPbfbNeX0-137" value="result" style="text;html=1;strokeColor=none;fillColor=none;align=center;verticalAlign=middle;whiteSpace=wrap;rounded=0;" vertex="1" parent="1">
          <mxGeometry x="50" y="2090" width="60" height="30" as="geometry" />
        </mxCell>
        <mxCell id="zKcuPosbzkQgPbfbNeX0-138" value="0" style="rounded=0;whiteSpace=wrap;html=1;" vertex="1" parent="1">
          <mxGeometry x="80" y="2120" width="40" height="40" as="geometry" />
        </mxCell>
        <mxCell id="zKcuPosbzkQgPbfbNeX0-139" value="" style="edgeStyle=orthogonalEdgeStyle;rounded=0;orthogonalLoop=1;jettySize=auto;html=1;" edge="1" parent="1" source="zKcuPosbzkQgPbfbNeX0-140" target="zKcuPosbzkQgPbfbNeX0-121">
          <mxGeometry relative="1" as="geometry" />
        </mxCell>
        <mxCell id="zKcuPosbzkQgPbfbNeX0-140" value="0" style="rounded=0;whiteSpace=wrap;html=1;fillColor=#6a00ff;fontColor=#ffffff;strokeColor=#3700CC;" vertex="1" parent="1">
          <mxGeometry x="360" y="1880" width="40" height="40" as="geometry" />
        </mxCell>
        <mxCell id="zKcuPosbzkQgPbfbNeX0-141" value="1" style="rounded=0;whiteSpace=wrap;html=1;fillColor=#6a00ff;fontColor=#ffffff;strokeColor=#3700CC;" vertex="1" parent="1">
          <mxGeometry x="80" y="2240" width="40" height="40" as="geometry" />
        </mxCell>
        <mxCell id="zKcuPosbzkQgPbfbNeX0-142" value="1" style="rounded=0;whiteSpace=wrap;html=1;" vertex="1" parent="1">
          <mxGeometry x="120" y="2360" width="40" height="40" as="geometry" />
        </mxCell>
        <mxCell id="zKcuPosbzkQgPbfbNeX0-143" value="1" style="rounded=0;whiteSpace=wrap;html=1;fillColor=#60a917;fontColor=#ffffff;strokeColor=#2D7600;" vertex="1" parent="1">
          <mxGeometry x="440" y="2240" width="40" height="40" as="geometry" />
        </mxCell>
        <mxCell id="zKcuPosbzkQgPbfbNeX0-144" value="1" style="rounded=0;whiteSpace=wrap;html=1;" vertex="1" parent="1">
          <mxGeometry x="120" y="2240" width="40" height="40" as="geometry" />
        </mxCell>
        <mxCell id="zKcuPosbzkQgPbfbNeX0-145" value="0" style="rounded=0;whiteSpace=wrap;html=1;" vertex="1" parent="1">
          <mxGeometry x="160" y="2240" width="40" height="40" as="geometry" />
        </mxCell>
        <mxCell id="zKcuPosbzkQgPbfbNeX0-146" value="1" style="rounded=0;whiteSpace=wrap;html=1;" vertex="1" parent="1">
          <mxGeometry x="200" y="2240" width="40" height="40" as="geometry" />
        </mxCell>
        <mxCell id="zKcuPosbzkQgPbfbNeX0-147" value="0" style="rounded=0;whiteSpace=wrap;html=1;" vertex="1" parent="1">
          <mxGeometry x="160" y="2360" width="40" height="40" as="geometry" />
        </mxCell>
        <mxCell id="zKcuPosbzkQgPbfbNeX0-148" value="1" style="rounded=0;whiteSpace=wrap;html=1;" vertex="1" parent="1">
          <mxGeometry x="240" y="2360" width="40" height="40" as="geometry" />
        </mxCell>
        <mxCell id="zKcuPosbzkQgPbfbNeX0-149" value="1" style="rounded=0;whiteSpace=wrap;html=1;" vertex="1" parent="1">
          <mxGeometry x="200" y="2360" width="40" height="40" as="geometry" />
        </mxCell>
        <mxCell id="zKcuPosbzkQgPbfbNeX0-150" value="seq a" style="text;html=1;strokeColor=none;fillColor=none;align=center;verticalAlign=middle;whiteSpace=wrap;rounded=0;" vertex="1" parent="1">
          <mxGeometry x="50" y="2210" width="60" height="30" as="geometry" />
        </mxCell>
        <mxCell id="zKcuPosbzkQgPbfbNeX0-151" value="1" style="rounded=0;whiteSpace=wrap;html=1;" vertex="1" parent="1">
          <mxGeometry x="240" y="2240" width="40" height="40" as="geometry" />
        </mxCell>
        <mxCell id="zKcuPosbzkQgPbfbNeX0-152" value="seq b" style="text;html=1;strokeColor=none;fillColor=none;align=center;verticalAlign=middle;whiteSpace=wrap;rounded=0;" vertex="1" parent="1">
          <mxGeometry x="50" y="2330" width="60" height="30" as="geometry" />
        </mxCell>
        <mxCell id="zKcuPosbzkQgPbfbNeX0-153" value="carry" style="text;html=1;strokeColor=none;fillColor=none;align=center;verticalAlign=middle;whiteSpace=wrap;rounded=0;" vertex="1" parent="1">
          <mxGeometry x="330" y="2210" width="60" height="30" as="geometry" />
        </mxCell>
        <mxCell id="zKcuPosbzkQgPbfbNeX0-154" value="0" style="rounded=0;whiteSpace=wrap;html=1;fillColor=#6a00ff;fontColor=#ffffff;strokeColor=#3700CC;" vertex="1" parent="1">
          <mxGeometry x="80" y="2360" width="40" height="40" as="geometry" />
        </mxCell>
        <mxCell id="zKcuPosbzkQgPbfbNeX0-155" value="0" style="rounded=0;whiteSpace=wrap;html=1;" vertex="1" parent="1">
          <mxGeometry x="120" y="2480" width="40" height="40" as="geometry" />
        </mxCell>
        <mxCell id="zKcuPosbzkQgPbfbNeX0-156" value="1" style="rounded=0;whiteSpace=wrap;html=1;" vertex="1" parent="1">
          <mxGeometry x="160" y="2480" width="40" height="40" as="geometry" />
        </mxCell>
        <mxCell id="zKcuPosbzkQgPbfbNeX0-157" value="0" style="rounded=0;whiteSpace=wrap;html=1;" vertex="1" parent="1">
          <mxGeometry x="240" y="2480" width="40" height="40" as="geometry" />
        </mxCell>
        <mxCell id="zKcuPosbzkQgPbfbNeX0-158" value="1" style="rounded=0;whiteSpace=wrap;html=1;" vertex="1" parent="1">
          <mxGeometry x="200" y="2480" width="40" height="40" as="geometry" />
        </mxCell>
        <mxCell id="zKcuPosbzkQgPbfbNeX0-159" value="result" style="text;html=1;strokeColor=none;fillColor=none;align=center;verticalAlign=middle;whiteSpace=wrap;rounded=0;" vertex="1" parent="1">
          <mxGeometry x="50" y="2450" width="60" height="30" as="geometry" />
        </mxCell>
        <mxCell id="zKcuPosbzkQgPbfbNeX0-160" value="0" style="rounded=0;whiteSpace=wrap;html=1;fillColor=#6a00ff;fontColor=#ffffff;strokeColor=#3700CC;" vertex="1" parent="1">
          <mxGeometry x="80" y="2480" width="40" height="40" as="geometry" />
        </mxCell>
        <mxCell id="zKcuPosbzkQgPbfbNeX0-161" value="" style="edgeStyle=orthogonalEdgeStyle;rounded=0;orthogonalLoop=1;jettySize=auto;html=1;" edge="1" parent="1" source="zKcuPosbzkQgPbfbNeX0-162" target="zKcuPosbzkQgPbfbNeX0-143">
          <mxGeometry relative="1" as="geometry" />
        </mxCell>
        <mxCell id="zKcuPosbzkQgPbfbNeX0-162" value="1" style="rounded=0;whiteSpace=wrap;html=1;fillColor=#6a00ff;fontColor=#ffffff;strokeColor=#3700CC;" vertex="1" parent="1">
          <mxGeometry x="360" y="2240" width="40" height="40" as="geometry" />
        </mxCell>
        <mxCell id="zKcuPosbzkQgPbfbNeX0-165" value="0" style="rounded=0;whiteSpace=wrap;html=1;fillColor=#60a917;fontColor=#ffffff;strokeColor=#2D7600;" vertex="1" parent="1">
          <mxGeometry x="440" y="2600" width="40" height="40" as="geometry" />
        </mxCell>
        <mxCell id="zKcuPosbzkQgPbfbNeX0-175" value="carry" style="text;html=1;strokeColor=none;fillColor=none;align=center;verticalAlign=middle;whiteSpace=wrap;rounded=0;" vertex="1" parent="1">
          <mxGeometry x="330" y="2570" width="60" height="30" as="geometry" />
        </mxCell>
        <mxCell id="zKcuPosbzkQgPbfbNeX0-177" value="0" style="rounded=0;whiteSpace=wrap;html=1;" vertex="1" parent="1">
          <mxGeometry x="120" y="2600" width="40" height="40" as="geometry" />
        </mxCell>
        <mxCell id="zKcuPosbzkQgPbfbNeX0-178" value="1" style="rounded=0;whiteSpace=wrap;html=1;" vertex="1" parent="1">
          <mxGeometry x="160" y="2600" width="40" height="40" as="geometry" />
        </mxCell>
        <mxCell id="zKcuPosbzkQgPbfbNeX0-179" value="0" style="rounded=0;whiteSpace=wrap;html=1;" vertex="1" parent="1">
          <mxGeometry x="240" y="2600" width="40" height="40" as="geometry" />
        </mxCell>
        <mxCell id="zKcuPosbzkQgPbfbNeX0-180" value="1" style="rounded=0;whiteSpace=wrap;html=1;" vertex="1" parent="1">
          <mxGeometry x="200" y="2600" width="40" height="40" as="geometry" />
        </mxCell>
        <mxCell id="zKcuPosbzkQgPbfbNeX0-181" value="result" style="text;html=1;strokeColor=none;fillColor=none;align=center;verticalAlign=middle;whiteSpace=wrap;rounded=0;" vertex="1" parent="1">
          <mxGeometry x="50" y="2570" width="60" height="30" as="geometry" />
        </mxCell>
        <mxCell id="zKcuPosbzkQgPbfbNeX0-182" value="0" style="rounded=0;whiteSpace=wrap;html=1;" vertex="1" parent="1">
          <mxGeometry x="80" y="2600" width="40" height="40" as="geometry" />
        </mxCell>
        <mxCell id="zKcuPosbzkQgPbfbNeX0-183" value="" style="edgeStyle=orthogonalEdgeStyle;rounded=0;orthogonalLoop=1;jettySize=auto;html=1;" edge="1" parent="1" source="zKcuPosbzkQgPbfbNeX0-184" target="zKcuPosbzkQgPbfbNeX0-165">
          <mxGeometry relative="1" as="geometry" />
        </mxCell>
        <mxCell id="zKcuPosbzkQgPbfbNeX0-184" value="1" style="rounded=0;whiteSpace=wrap;html=1;fillColor=#6a00ff;fontColor=#ffffff;strokeColor=#3700CC;" vertex="1" parent="1">
          <mxGeometry x="360" y="2600" width="40" height="40" as="geometry" />
        </mxCell>
        <mxCell id="zKcuPosbzkQgPbfbNeX0-185" value="1" style="rounded=0;whiteSpace=wrap;html=1;fillColor=#6a00ff;fontColor=#ffffff;strokeColor=#3700CC;" vertex="1" parent="1">
          <mxGeometry x="40" y="2600" width="40" height="40" as="geometry" />
        </mxCell>
        <mxCell id="zKcuPosbzkQgPbfbNeX0-186" value="II" style="text;html=1;strokeColor=none;fillColor=none;align=center;verticalAlign=middle;whiteSpace=wrap;rounded=0;fontSize=18;" vertex="1" parent="1">
          <mxGeometry x="10" y="1080" width="140" height="30" as="geometry" />
        </mxCell>
        <mxCell id="zKcuPosbzkQgPbfbNeX0-187" value="III" style="text;html=1;strokeColor=none;fillColor=none;align=center;verticalAlign=middle;whiteSpace=wrap;rounded=0;fontSize=18;" vertex="1" parent="1">
          <mxGeometry x="10" y="1460" width="140" height="30" as="geometry" />
        </mxCell>
        <mxCell id="zKcuPosbzkQgPbfbNeX0-188" value="IV" style="text;html=1;strokeColor=none;fillColor=none;align=center;verticalAlign=middle;whiteSpace=wrap;rounded=0;fontSize=18;" vertex="1" parent="1">
          <mxGeometry x="10" y="1820" width="140" height="30" as="geometry" />
        </mxCell>
        <mxCell id="zKcuPosbzkQgPbfbNeX0-189" value="V" style="text;html=1;strokeColor=none;fillColor=none;align=center;verticalAlign=middle;whiteSpace=wrap;rounded=0;fontSize=18;" vertex="1" parent="1">
          <mxGeometry x="10" y="2180" width="140" height="30" as="geometry" />
        </mxCell>
        <mxCell id="zKcuPosbzkQgPbfbNeX0-190" value="VI" style="text;html=1;strokeColor=none;fillColor=none;align=center;verticalAlign=middle;whiteSpace=wrap;rounded=0;fontSize=18;" vertex="1" parent="1">
          <mxGeometry x="10" y="2540" width="140" height="30" as="geometry" />
        </mxCell>
        <mxCell id="zKcuPosbzkQgPbfbNeX0-191" value="I" style="text;html=1;strokeColor=none;fillColor=none;align=center;verticalAlign=middle;whiteSpace=wrap;rounded=0;fontSize=18;" vertex="1" parent="1">
          <mxGeometry x="10" y="700" width="140" height="30" as="geometry" />
        </mxCell>
      </root>
    </mxGraphModel>
  </diagram>
</mxfile>
